<?xml version="1.0" encoding="UTF-8"?>
<svg id="Layer_1" data-name="Layer 1" xmlns="http://www.w3.org/2000/svg" viewBox="0 0 1800.38 581.51">
  <defs>
    <style>
      .cls-1 {
        stroke-dasharray: 0 0 0 10.95;
      }

      .cls-1, .cls-2 {
        fill: none;
        stroke: #e2dddb;
        stroke-linecap: round;
        stroke-miterlimit: 10;
        stroke-width: 5px;
      }

      .cls-3 {
        fill: #ff5a5f;
      }

      .cls-4 {
        fill: #333;
      }

      .cls-5 {
        fill: #2d4762;
      }
    </style>
  </defs>
  <polygon class="cls-5" points="45.37 548.66 289.58 547.75 533.79 544.5 778 537.86 1022.21 523.56 1266.42 476.58 1510.63 351.19 1755.01 91.23 1800.38 45.9 1800.38 551.19 0 551.19 45.37 548.66"/>
  <circle class="cls-3" cx="45.35" cy="548.67" r="7.5"/>
  <g>
    <path class="cls-4" d="m31,581.28h-11.18v-1.56l5.91-6.56c.88-.99,1.48-1.8,1.81-2.42s.5-1.26.5-1.93c0-.89-.27-1.62-.81-2.19s-1.26-.86-2.16-.86c-1.08,0-1.92.31-2.51.92s-.9,1.47-.9,2.56h-2.17c0-1.57.51-2.84,1.52-3.81s2.37-1.45,4.06-1.45c1.59,0,2.84.42,3.76,1.25s1.38,1.94,1.38,3.32c0,1.68-1.07,3.68-3.21,6l-4.57,4.96h8.57v1.77Z"/>
    <path class="cls-4" d="m43.99,574c0,2.54-.43,4.43-1.3,5.66s-2.22,1.85-4.07,1.85-3.17-.6-4.04-1.81-1.33-3.01-1.36-5.41v-2.89c0-2.51.43-4.37,1.3-5.59s2.23-1.83,4.08-1.83,3.19.59,4.05,1.76,1.31,2.99,1.34,5.44v2.81Zm-2.17-2.96c0-1.84-.26-3.17-.77-4.01s-1.33-1.26-2.45-1.26-1.92.42-2.43,1.25-.77,2.12-.79,3.86v3.47c0,1.84.27,3.21.8,4.08s1.35,1.32,2.43,1.32,1.87-.41,2.38-1.24.79-2.13.81-3.91v-3.55Z"/>
    <path class="cls-4" d="m53.89,581.28h-2.18v-14.45l-4.37,1.61v-1.97l6.21-2.33h.34v17.14Z"/>
    <path class="cls-4" d="m61.24,572.72l.87-8.51h8.74v2h-6.9l-.52,4.65c.84-.49,1.79-.74,2.85-.74,1.55,0,2.79.51,3.7,1.54s1.37,2.42,1.37,4.17-.47,3.14-1.42,4.15-2.28,1.52-3.98,1.52c-1.51,0-2.74-.42-3.69-1.25s-1.5-1.99-1.63-3.47h2.05c.13.98.48,1.71,1.04,2.21s1.3.74,2.23.74c1.01,0,1.8-.34,2.37-1.03s.86-1.64.86-2.85c0-1.14-.31-2.06-.93-2.75s-1.45-1.04-2.48-1.04c-.95,0-1.69.21-2.23.62l-.57.47-1.73-.45Z"/>
  </g>
  <g>
    <path class="cls-4" d="m19.31,471.23l1.27-13.01h12.39v4.25h-8.31l-.46,5.48c.96-.64,1.95-.97,2.97-.97,2.11,0,3.74.75,4.88,2.25s1.71,3.62,1.71,6.36c0,2.57-.68,4.63-2.04,6.21s-3.18,2.36-5.45,2.36c-1.35,0-2.6-.32-3.74-.96s-2.05-1.53-2.71-2.66-1-2.43-1.01-3.87h4.92c.08,1.07.35,1.89.79,2.48s1.02.88,1.72.88c.82,0,1.45-.4,1.9-1.19s.67-1.97.67-3.54c0-1.48-.27-2.59-.8-3.34s-1.28-1.12-2.24-1.12-1.66.32-2.18.97l-.32.44-3.96-1.02Z"/>
    <path class="cls-4" d="m51.88,473.23c0,3.54-.64,6.25-1.92,8.12s-3.12,2.81-5.49,2.81-4.17-.91-5.46-2.73-1.95-4.43-2-7.83v-4.83c0-3.53.64-6.23,1.92-8.09s3.11-2.8,5.5-2.8,4.22.93,5.5,2.78,1.93,4.49,1.95,7.93v4.66Zm-4.99-5.19c0-2.02-.2-3.53-.6-4.54s-1.02-1.51-1.86-1.51c-1.58,0-2.4,1.85-2.46,5.54v6.38c0,2.06.2,3.6.61,4.61s1.03,1.51,1.89,1.51c.81,0,1.41-.47,1.8-1.42s.6-2.39.62-4.33v-6.24Z"/>
    <path class="cls-4" d="m62.82,473.93l-2.04,2.57v7.31h-5.17v-25.59h5.17v11.16l1.63-2.76,4.76-8.4h6.33l-7.33,11.25,7.45,14.34h-6.13l-4.68-9.88Z"/>
  </g>
  <circle class="cls-3" cx="289.59" cy="547.8" r="7.5"/>
  <g>
    <path class="cls-4" d="m275.23,581.28h-11.18v-1.56l5.91-6.56c.88-.99,1.48-1.8,1.81-2.42s.5-1.26.5-1.93c0-.89-.27-1.62-.81-2.19s-1.26-.86-2.16-.86c-1.08,0-1.92.31-2.51.92s-.9,1.47-.9,2.56h-2.17c0-1.57.51-2.84,1.52-3.81s2.37-1.45,4.06-1.45c1.59,0,2.84.42,3.76,1.25s1.38,1.94,1.38,3.32c0,1.68-1.07,3.68-3.21,6l-4.57,4.96h8.57v1.77Z"/>
    <path class="cls-4" d="m288.23,574c0,2.54-.43,4.43-1.3,5.66s-2.22,1.85-4.07,1.85-3.17-.6-4.04-1.81-1.33-3.01-1.36-5.41v-2.89c0-2.51.43-4.37,1.3-5.59s2.23-1.83,4.08-1.83,3.19.59,4.05,1.76,1.31,2.99,1.34,5.44v2.81Zm-2.17-2.96c0-1.84-.26-3.17-.77-4.01s-1.33-1.26-2.45-1.26-1.92.42-2.43,1.25-.77,2.12-.79,3.86v3.47c0,1.84.27,3.21.8,4.08s1.35,1.32,2.43,1.32,1.87-.41,2.38-1.24.79-2.13.81-3.91v-3.55Z"/>
    <path class="cls-4" d="m298.13,581.28h-2.18v-14.45l-4.37,1.61v-1.97l6.21-2.33h.34v17.14Z"/>
    <path class="cls-4" d="m312.99,564.2v1.84h-.4c-1.69.03-3.03.53-4.03,1.5s-1.58,2.33-1.73,4.09c.9-1.03,2.12-1.55,3.68-1.55s2.67.52,3.56,1.57,1.33,2.4,1.33,4.05c0,1.76-.48,3.16-1.44,4.22s-2.24,1.58-3.85,1.58-2.96-.63-3.97-1.88-1.52-2.87-1.52-4.85v-.83c0-3.14.67-5.54,2.01-7.2s3.33-2.51,5.98-2.55h.39Zm-2.85,7.69c-.74,0-1.43.22-2.05.67s-1.06,1-1.3,1.68v.8c0,1.41.32,2.54.95,3.4s1.42,1.29,2.37,1.29,1.74-.36,2.3-1.08.84-1.66.84-2.82-.28-2.12-.85-2.84-1.32-1.08-2.26-1.08Z"/>
  </g>
  <g>
    <path class="cls-4" d="m264.88,483.16h-4.99v-19.55l-4.87,1.88v-4.15l9.33-3.81h.53v25.63Z"/>
    <path class="cls-4" d="m287.01,472.58c0,3.54-.64,6.25-1.92,8.12s-3.11,2.81-5.49,2.81-4.17-.91-5.46-2.73-1.95-4.43-2-7.83v-4.83c0-3.53.64-6.23,1.92-8.09s3.11-2.8,5.5-2.8,4.22.93,5.5,2.78,1.93,4.49,1.95,7.93v4.66Zm-4.99-5.19c0-2.02-.2-3.53-.6-4.54s-1.02-1.51-1.86-1.51c-1.58,0-2.4,1.85-2.46,5.54v6.38c0,2.06.2,3.6.61,4.61s1.03,1.51,1.89,1.51c.81,0,1.41-.47,1.8-1.42s.6-2.39.62-4.33v-6.24Z"/>
    <path class="cls-4" d="m305.23,472.58c0,3.54-.64,6.25-1.92,8.12s-3.11,2.81-5.49,2.81-4.17-.91-5.46-2.73-1.95-4.43-2-7.83v-4.83c0-3.53.64-6.23,1.92-8.09s3.11-2.8,5.5-2.8,4.22.93,5.5,2.78,1.93,4.49,1.95,7.93v4.66Zm-4.99-5.19c0-2.02-.2-3.53-.6-4.54s-1.02-1.51-1.86-1.51c-1.58,0-2.4,1.85-2.46,5.54v6.38c0,2.06.2,3.6.61,4.61s1.03,1.51,1.89,1.51c.81,0,1.41-.47,1.8-1.42s.6-2.39.62-4.33v-6.24Z"/>
    <path class="cls-4" d="m316.16,473.29l-2.04,2.57v7.31h-5.17v-25.59h5.17v11.16l1.63-2.76,4.76-8.4h6.33l-7.33,11.25,7.45,14.34h-6.13l-4.68-9.88Z"/>
  </g>
  <circle class="cls-3" cx="533.83" cy="544.19" r="7.5"/>
  <g>
    <path class="cls-4" d="m519.47,581.28h-11.18v-1.56l5.91-6.56c.88-.99,1.48-1.8,1.81-2.42s.5-1.26.5-1.93c0-.89-.27-1.62-.81-2.19s-1.26-.86-2.16-.86c-1.08,0-1.92.31-2.51.92s-.9,1.47-.9,2.56h-2.17c0-1.57.51-2.84,1.52-3.81s2.37-1.45,4.06-1.45c1.59,0,2.84.42,3.76,1.25s1.38,1.94,1.38,3.32c0,1.68-1.07,3.68-3.21,6l-4.57,4.96h8.57v1.77Z"/>
    <path class="cls-4" d="m532.47,574c0,2.54-.43,4.43-1.3,5.66s-2.22,1.85-4.07,1.85-3.17-.6-4.04-1.81-1.33-3.01-1.36-5.41v-2.89c0-2.51.43-4.37,1.3-5.59s2.23-1.83,4.08-1.83,3.19.59,4.05,1.76,1.31,2.99,1.34,5.44v2.81Zm-2.17-2.96c0-1.84-.26-3.17-.77-4.01s-1.33-1.26-2.45-1.26-1.92.42-2.43,1.25-.77,2.12-.79,3.86v3.47c0,1.84.27,3.21.8,4.08s1.35,1.32,2.43,1.32,1.87-.41,2.38-1.24.79-2.13.81-3.91v-3.55Z"/>
    <path class="cls-4" d="m542.37,581.28h-2.18v-14.45l-4.37,1.61v-1.97l6.21-2.33h.34v17.14Z"/>
    <path class="cls-4" d="m559.74,565.43l-7.07,15.84h-2.27l7.04-15.28h-9.23v-1.78h11.53v1.22Z"/>
  </g>
  <g>
    <path class="cls-4" d="m502.6,464.13h2.41c.91,0,1.58-.32,2.01-.96s.64-1.49.64-2.56-.22-1.81-.66-2.38-1.03-.85-1.77-.85c-.69,0-1.26.27-1.7.81s-.66,1.22-.66,2.04h-4.97c0-1.34.31-2.53.92-3.59s1.48-1.89,2.58-2.49,2.34-.9,3.68-.9c2.36,0,4.2.65,5.54,1.95s2,3.08,2,5.34c0,1.16-.3,2.24-.91,3.23s-1.4,1.75-2.38,2.28c1.21.52,2.11,1.29,2.7,2.32s.89,2.25.89,3.66c0,2.27-.72,4.1-2.17,5.47s-3.35,2.06-5.7,2.06c-2.19,0-3.97-.68-5.34-2.03s-2.05-3.13-2.05-5.33h4.97c0,.91.24,1.68.72,2.3s1.09.93,1.83.93c.86,0,1.53-.32,2.03-.95s.75-1.48.75-2.53c0-2.52-.98-3.79-2.94-3.8h-2.44v-4.01Z"/>
    <path class="cls-4" d="m531.25,468.61c0,3.54-.64,6.25-1.93,8.12s-3.11,2.81-5.49,2.81-4.18-.91-5.46-2.73-1.95-4.43-1.99-7.83v-4.83c0-3.53.64-6.23,1.92-8.09s3.11-2.8,5.5-2.8,4.22.93,5.5,2.78,1.93,4.49,1.95,7.93v4.66Zm-4.99-5.19c0-2.02-.2-3.53-.6-4.54s-1.02-1.51-1.86-1.51c-1.58,0-2.4,1.85-2.46,5.54v6.38c0,2.06.2,3.6.61,4.61s1.04,1.51,1.89,1.51c.81,0,1.41-.47,1.8-1.42s.6-2.39.62-4.33v-6.24Z"/>
    <path class="cls-4" d="m549.46,468.61c0,3.54-.64,6.25-1.93,8.12s-3.11,2.81-5.49,2.81-4.18-.91-5.46-2.73-1.95-4.43-1.99-7.83v-4.83c0-3.53.64-6.23,1.92-8.09s3.11-2.8,5.5-2.8,4.22.93,5.5,2.78,1.93,4.49,1.95,7.93v4.66Zm-4.99-5.19c0-2.02-.2-3.53-.6-4.54s-1.02-1.51-1.86-1.51c-1.58,0-2.4,1.85-2.46,5.54v6.38c0,2.06.2,3.6.61,4.61s1.04,1.51,1.89,1.51c.81,0,1.41-.47,1.8-1.42s.6-2.39.62-4.33v-6.24Z"/>
    <path class="cls-4" d="m560.4,469.31l-2.04,2.57v7.31h-5.17v-25.59h5.17v11.16l1.63-2.76,4.76-8.4h6.33l-7.33,11.25,7.45,14.34h-6.13l-4.68-9.88Z"/>
  </g>
  <circle class="cls-3" cx="778.06" cy="538.11" r="7.5"/>
  <g>
    <path class="cls-4" d="m763.71,581.28h-11.18v-1.56l5.91-6.56c.88-.99,1.48-1.8,1.81-2.42s.5-1.26.5-1.93c0-.89-.27-1.62-.81-2.19s-1.26-.86-2.16-.86c-1.08,0-1.92.31-2.51.92s-.9,1.47-.9,2.56h-2.17c0-1.57.51-2.84,1.52-3.81s2.37-1.45,4.06-1.45c1.59,0,2.84.42,3.76,1.25s1.38,1.94,1.38,3.32c0,1.68-1.07,3.68-3.21,6l-4.57,4.96h8.57v1.77Z"/>
    <path class="cls-4" d="m776.7,574c0,2.54-.43,4.43-1.3,5.66s-2.22,1.85-4.07,1.85-3.17-.6-4.04-1.81-1.33-3.01-1.36-5.41v-2.89c0-2.51.43-4.37,1.3-5.59s2.23-1.83,4.08-1.83,3.19.59,4.05,1.76,1.31,2.99,1.34,5.44v2.81Zm-2.17-2.96c0-1.84-.26-3.17-.77-4.01s-1.33-1.26-2.45-1.26-1.92.42-2.43,1.25-.77,2.12-.79,3.86v3.47c0,1.84.27,3.21.8,4.08s1.35,1.32,2.43,1.32,1.87-.41,2.38-1.24.79-2.13.81-3.91v-3.55Z"/>
    <path class="cls-4" d="m786.61,581.28h-2.18v-14.45l-4.37,1.61v-1.97l6.21-2.33h.34v17.14Z"/>
    <path class="cls-4" d="m803.3,568.67c0,.85-.22,1.61-.67,2.27s-1.06,1.18-1.82,1.56c.89.38,1.6.94,2.12,1.68s.78,1.57.78,2.5c0,1.48-.5,2.65-1.49,3.53s-2.31,1.31-3.93,1.31-2.96-.44-3.94-1.32-1.48-2.05-1.48-3.52c0-.92.25-1.75.76-2.5s1.2-1.3,2.09-1.69c-.76-.38-1.36-.89-1.79-1.56s-.66-1.42-.66-2.26c0-1.44.46-2.58,1.38-3.42s2.14-1.27,3.64-1.27,2.71.42,3.64,1.27,1.39,1.98,1.39,3.42Zm-1.77,7.96c0-.95-.3-1.73-.91-2.33s-1.4-.9-2.37-.9-1.76.3-2.35.89-.88,1.38-.88,2.34.29,1.73.86,2.29,1.37.83,2.4.83,1.81-.28,2.39-.84.87-1.32.87-2.28Zm-3.26-10.86c-.85,0-1.54.26-2.07.79s-.79,1.24-.79,2.15.26,1.57.78,2.1,1.21.8,2.08.8,1.56-.27,2.08-.8.78-1.24.78-2.1-.27-1.57-.81-2.12-1.22-.82-2.05-.82Z"/>
  </g>
  <g>
    <path class="cls-4" d="m753.58,473.11h-4.99v-19.55l-4.87,1.88v-4.15l9.33-3.81h.53v25.63Z"/>
    <path class="cls-4" d="m761.39,470.58c0-.8.27-1.45.8-1.97s1.23-.77,2.08-.77,1.52.25,2.07.76.83,1.17.83,1.98-.28,1.48-.83,1.98-1.25.75-2.07.75-1.52-.25-2.07-.76-.82-1.16-.82-1.97Z"/>
    <path class="cls-4" d="m775.75,458.04h2.41c.91,0,1.58-.32,2.01-.96s.64-1.49.64-2.56-.22-1.81-.66-2.38-1.03-.85-1.77-.85c-.69,0-1.26.27-1.7.81s-.66,1.22-.66,2.04h-4.97c0-1.34.31-2.53.92-3.59s1.48-1.89,2.58-2.49,2.33-.9,3.68-.9c2.36,0,4.2.65,5.54,1.95s2,3.08,2,5.34c0,1.16-.3,2.24-.91,3.23s-1.4,1.75-2.38,2.28c1.21.52,2.11,1.29,2.7,2.32s.89,2.25.89,3.66c0,2.27-.72,4.1-2.17,5.47s-3.35,2.06-5.7,2.06c-2.19,0-3.97-.68-5.33-2.03s-2.05-3.13-2.05-5.33h4.97c0,.91.24,1.68.72,2.3s1.09.93,1.83.93c.86,0,1.53-.32,2.03-.95s.75-1.48.75-2.53c0-2.52-.98-3.79-2.94-3.8h-2.44v-4.01Z"/>
    <path class="cls-4" d="m796.67,447.51l4.83,18.51,4.82-18.51h6.75v25.59h-5.19v-6.93l.47-10.67-5.12,17.6h-3.52l-5.12-17.6.47,10.67v6.93h-5.17v-25.59h6.75Z"/>
  </g>
  <circle class="cls-3" cx="1022.3" cy="523.61" r="7.5"/>
  <g>
    <path class="cls-4" d="m1007.94,581.28h-11.18v-1.56l5.91-6.56c.88-.99,1.48-1.8,1.81-2.42s.5-1.26.5-1.93c0-.89-.27-1.62-.81-2.19s-1.26-.86-2.16-.86c-1.08,0-1.92.31-2.51.92s-.9,1.47-.9,2.56h-2.17c0-1.57.51-2.84,1.52-3.81s2.37-1.45,4.06-1.45c1.59,0,2.84.42,3.76,1.25s1.38,1.94,1.38,3.32c0,1.68-1.07,3.68-3.21,6l-4.57,4.96h8.57v1.77Z"/>
    <path class="cls-4" d="m1020.94,574c0,2.54-.43,4.43-1.3,5.66s-2.22,1.85-4.07,1.85-3.17-.6-4.04-1.81-1.33-3.01-1.36-5.41v-2.89c0-2.51.43-4.37,1.3-5.59s2.23-1.83,4.08-1.83,3.19.59,4.05,1.76,1.31,2.99,1.34,5.44v2.81Zm-2.17-2.96c0-1.84-.26-3.17-.77-4.01s-1.33-1.26-2.45-1.26-1.92.42-2.43,1.25-.77,2.12-.79,3.86v3.47c0,1.84.27,3.21.8,4.08s1.35,1.32,2.43,1.32,1.87-.41,2.38-1.24.79-2.13.81-3.91v-3.55Z"/>
    <path class="cls-4" d="m1030.84,581.28h-2.18v-14.45l-4.37,1.61v-1.97l6.21-2.33h.34v17.14Z"/>
    <path class="cls-4" d="m1045.5,573.78c-.45.54-.99.97-1.62,1.3s-1.32.49-2.07.49c-.98,0-1.84-.24-2.57-.73s-1.29-1.17-1.69-2.04-.6-1.85-.6-2.91c0-1.14.22-2.17.65-3.08s1.05-1.61,1.85-2.1,1.73-.73,2.79-.73c1.69,0,3.02.63,3.99,1.89s1.46,2.98,1.46,5.16v.63c0,3.32-.66,5.74-1.97,7.27s-3.29,2.31-5.94,2.35h-.42v-1.84h.46c1.79-.03,3.16-.5,4.12-1.4s1.48-2.33,1.57-4.28Zm-3.34,0c.73,0,1.4-.22,2.01-.67s1.06-1,1.34-1.65v-.87c0-1.42-.31-2.58-.93-3.47s-1.4-1.34-2.34-1.34-1.72.37-2.3,1.1-.87,1.69-.87,2.89.28,2.12.84,2.88,1.31,1.13,2.24,1.13Z"/>
  </g>
  <g>
    <path class="cls-4" d="m1014.33,448.79h2.18v4.13h-2.18v5.54h-4.97v-5.54h-8.47l-.23-3.22,8.68-16.84h4.99v15.93Zm-8.84,0h3.87v-8.56l-.11.19-3.76,8.37Z"/>
    <path class="cls-4" d="m1026.56,432.87l4.83,18.51,4.82-18.51h6.75v25.59h-5.19v-6.93l.47-10.67-5.12,17.6h-3.52l-5.12-17.6.47,10.67v6.93h-5.17v-25.59h6.75Z"/>
  </g>
  <circle class="cls-3" cx="1266.54" cy="476.4" r="7.5"/>
  <g>
    <path class="cls-4" d="m1252.18,581.28h-11.18v-1.56l5.91-6.56c.88-.99,1.48-1.8,1.81-2.42s.5-1.26.5-1.93c0-.89-.27-1.62-.81-2.19s-1.26-.86-2.16-.86c-1.08,0-1.92.31-2.51.92s-.9,1.47-.9,2.56h-2.17c0-1.57.51-2.84,1.52-3.81s2.37-1.45,4.06-1.45c1.59,0,2.84.42,3.76,1.25s1.38,1.94,1.38,3.32c0,1.68-1.07,3.68-3.21,6l-4.57,4.96h8.57v1.77Z"/>
    <path class="cls-4" d="m1265.18,574c0,2.54-.43,4.43-1.3,5.66s-2.22,1.85-4.07,1.85-3.17-.6-4.04-1.81-1.33-3.01-1.36-5.41v-2.89c0-2.51.43-4.37,1.3-5.59s2.23-1.83,4.08-1.83,3.19.59,4.05,1.76,1.31,2.99,1.34,5.44v2.81Zm-2.17-2.96c0-1.84-.26-3.17-.77-4.01s-1.33-1.26-2.45-1.26-1.92.42-2.43,1.25-.77,2.12-.79,3.86v3.47c0,1.84.27,3.21.8,4.08s1.35,1.32,2.43,1.32,1.87-.41,2.38-1.24.79-2.13.81-3.91v-3.55Z"/>
    <path class="cls-4" d="m1279.13,581.28h-11.18v-1.56l5.91-6.56c.88-.99,1.48-1.8,1.81-2.42s.5-1.26.5-1.93c0-.89-.27-1.62-.81-2.19s-1.26-.86-2.16-.86c-1.08,0-1.92.31-2.51.92s-.9,1.47-.9,2.56h-2.17c0-1.57.51-2.84,1.52-3.81s2.37-1.45,4.06-1.45c1.59,0,2.84.42,3.76,1.25s1.38,1.94,1.38,3.32c0,1.68-1.07,3.68-3.21,6l-4.57,4.96h8.57v1.77Z"/>
    <path class="cls-4" d="m1292.13,574c0,2.54-.43,4.43-1.3,5.66s-2.22,1.85-4.07,1.85-3.17-.6-4.04-1.81-1.33-3.01-1.36-5.41v-2.89c0-2.51.43-4.37,1.3-5.59s2.23-1.83,4.08-1.83,3.19.59,4.05,1.76,1.31,2.99,1.34,5.44v2.81Zm-2.17-2.96c0-1.84-.26-3.17-.77-4.01s-1.33-1.26-2.45-1.26-1.92.42-2.43,1.25-.77,2.12-.79,3.86v3.47c0,1.84.27,3.21.8,4.08s1.35,1.32,2.43,1.32,1.87-.41,2.38-1.24.79-2.13.81-3.91v-3.55Z"/>
  </g>
  <g>
    <path class="cls-4" d="m1247.3,411.4h-4.99v-19.55l-4.87,1.88v-4.15l9.33-3.81h.53v25.63Z"/>
    <path class="cls-4" d="m1269.43,400.82c0,3.54-.64,6.25-1.93,8.12s-3.11,2.81-5.49,2.81-4.18-.91-5.46-2.73-1.95-4.43-1.99-7.83v-4.83c0-3.53.64-6.23,1.92-8.09s3.11-2.8,5.5-2.8,4.22.93,5.5,2.78,1.93,4.49,1.95,7.93v4.66Zm-4.99-5.19c0-2.02-.2-3.53-.6-4.54s-1.02-1.51-1.86-1.51c-1.58,0-2.4,1.85-2.46,5.54v6.38c0,2.06.2,3.6.61,4.61s1.04,1.51,1.89,1.51c.81,0,1.41-.47,1.8-1.42s.6-2.39.62-4.33v-6.24Z"/>
    <path class="cls-4" d="m1279.9,385.81l4.83,18.51,4.82-18.51h6.75v25.59h-5.19v-6.93l.47-10.67-5.12,17.6h-3.52l-5.12-17.6.47,10.67v6.93h-5.17v-25.59h6.75Z"/>
  </g>
  <circle class="cls-3" cx="1510.77" cy="351.19" r="7.5"/>
  <g>
    <path class="cls-4" d="m1496.42,581.28h-11.18v-1.56l5.91-6.56c.88-.99,1.48-1.8,1.81-2.42s.5-1.26.5-1.93c0-.89-.27-1.62-.81-2.19s-1.26-.86-2.16-.86c-1.08,0-1.92.31-2.51.92s-.9,1.47-.9,2.56h-2.17c0-1.57.51-2.84,1.52-3.81s2.37-1.45,4.06-1.45c1.59,0,2.84.42,3.76,1.25s1.38,1.94,1.38,3.32c0,1.68-1.07,3.68-3.21,6l-4.57,4.96h8.57v1.77Z"/>
    <path class="cls-4" d="m1509.41,574c0,2.54-.43,4.43-1.3,5.66s-2.22,1.85-4.07,1.85-3.17-.6-4.04-1.81-1.33-3.01-1.36-5.41v-2.89c0-2.51.43-4.37,1.3-5.59s2.23-1.83,4.08-1.83,3.19.59,4.05,1.76,1.31,2.99,1.34,5.44v2.81Zm-2.17-2.96c0-1.84-.26-3.17-.77-4.01s-1.33-1.26-2.45-1.26-1.92.42-2.43,1.25-.77,2.12-.79,3.86v3.47c0,1.84.27,3.21.8,4.08s1.35,1.32,2.43,1.32,1.87-.41,2.38-1.24.79-2.13.81-3.91v-3.55Z"/>
    <path class="cls-4" d="m1523.37,581.28h-11.18v-1.56l5.91-6.56c.88-.99,1.48-1.8,1.81-2.42s.5-1.26.5-1.93c0-.89-.27-1.62-.81-2.19s-1.26-.86-2.16-.86c-1.08,0-1.92.31-2.51.92s-.9,1.47-.9,2.56h-2.17c0-1.57.51-2.84,1.52-3.81s2.37-1.45,4.06-1.45c1.59,0,2.84.42,3.76,1.25s1.38,1.94,1.38,3.32c0,1.68-1.07,3.68-3.21,6l-4.57,4.96h8.57v1.77Z"/>
    <path class="cls-4" d="m1532.79,581.28h-2.18v-14.45l-4.37,1.61v-1.97l6.21-2.33h.34v17.14Z"/>
  </g>
  <g>
    <path class="cls-4" d="m1481.32,286.19h-15.08v-3.52l6.93-8.81c.88-1.22,1.53-2.29,1.94-3.21s.62-1.8.62-2.65c0-1.14-.2-2.03-.59-2.67s-.96-.97-1.7-.97c-.81,0-1.45.38-1.92,1.12s-.71,1.8-.71,3.16h-4.99c0-1.57.33-3.01.98-4.31s1.56-2.31,2.74-3.03,2.51-1.08,4-1.08c2.29,0,4.06.63,5.32,1.89s1.89,3.05,1.89,5.37c0,1.44-.35,2.9-1.05,4.39s-1.96,3.31-3.79,5.48l-3.29,4.69h8.7v4.13Z"/>
    <path class="cls-4" d="m1488.88,271.12h2.41c.91,0,1.58-.32,2.01-.96s.64-1.49.64-2.56-.22-1.81-.66-2.38-1.03-.85-1.77-.85c-.69,0-1.26.27-1.7.81s-.66,1.22-.66,2.04h-4.97c0-1.34.31-2.53.92-3.59s1.48-1.89,2.58-2.49,2.33-.9,3.68-.9c2.36,0,4.2.65,5.54,1.95s2,3.08,2,5.34c0,1.16-.3,2.24-.91,3.23s-1.4,1.75-2.38,2.28c1.21.52,2.11,1.29,2.7,2.32s.89,2.25.89,3.66c0,2.27-.72,4.1-2.17,5.47s-3.35,2.06-5.7,2.06c-2.19,0-3.97-.68-5.33-2.03s-2.05-3.13-2.05-5.33h4.97c0,.91.24,1.68.72,2.3s1.09.93,1.83.93c.86,0,1.53-.32,2.03-.95s.75-1.48.75-2.53c0-2.52-.98-3.79-2.94-3.8h-2.44v-4.01Z"/>
    <path class="cls-4" d="m1503.21,283.66c0-.8.27-1.45.8-1.97s1.23-.77,2.08-.77,1.52.25,2.07.76.83,1.17.83,1.98-.28,1.48-.83,1.98-1.25.75-2.07.75-1.52-.25-2.07-.76-.82-1.16-.82-1.97Z"/>
    <path class="cls-4" d="m1513.65,273.6l1.27-13.01h12.39v4.25h-8.31l-.46,5.48c.96-.64,1.95-.97,2.97-.97,2.11,0,3.74.75,4.88,2.25s1.71,3.62,1.71,6.36c0,2.57-.68,4.63-2.04,6.21s-3.18,2.36-5.45,2.36c-1.35,0-2.6-.32-3.74-.96s-2.05-1.53-2.72-2.66-1-2.43-1.01-3.87h4.92c.08,1.07.35,1.89.79,2.48s1.02.88,1.72.88c.82,0,1.45-.4,1.9-1.19s.67-1.97.67-3.54c0-1.48-.27-2.59-.8-3.34s-1.28-1.12-2.24-1.12-1.66.32-2.18.97l-.32.44-3.96-1.02Z"/>
    <path class="cls-4" d="m1538.48,260.59l4.83,18.51,4.82-18.51h6.75v25.59h-5.19v-6.93l.47-10.67-5.12,17.6h-3.52l-5.12-17.6.47,10.67v6.93h-5.17v-25.59h6.75Z"/>
  </g>
  <g>
    <line class="cls-2" x1="45.35" y1="493.9" x2="45.35" y2="493.9"/>
    <line class="cls-1" x1="45.35" y1="504.86" x2="45.35" y2="543.19"/>
    <line class="cls-2" x1="45.35" y1="548.67" x2="45.35" y2="548.67"/>
  </g>
  <g>
    <line class="cls-2" x1="289.59" y1="493.03" x2="289.59" y2="493.03"/>
    <line class="cls-1" x1="289.59" y1="503.98" x2="289.59" y2="542.32"/>
    <line class="cls-2" x1="289.59" y1="547.8" x2="289.59" y2="547.8"/>
  </g>
  <g>
    <line class="cls-2" x1="533.83" y1="489.41" x2="533.83" y2="489.41"/>
    <line class="cls-1" x1="533.83" y1="500.37" x2="533.83" y2="538.7"/>
    <line class="cls-2" x1="533.83" y1="544.18" x2="533.83" y2="544.18"/>
  </g>
  <g>
    <line class="cls-2" x1="778" y1="483.34" x2="778" y2="483.34"/>
    <line class="cls-1" x1="778" y1="494.29" x2="778" y2="532.63"/>
    <line class="cls-2" x1="778" y1="538.11" x2="778" y2="538.11"/>
  </g>
  <g>
    <line class="cls-2" x1="1022.3" y1="468.84" x2="1022.3" y2="468.84"/>
    <line class="cls-1" x1="1022.3" y1="479.8" x2="1022.3" y2="518.13"/>
    <line class="cls-2" x1="1022.3" y1="523.61" x2="1022.3" y2="523.61"/>
  </g>
  <g>
    <line class="cls-2" x1="1266.54" y1="421.63" x2="1266.54" y2="421.63"/>
    <line class="cls-1" x1="1266.54" y1="432.59" x2="1266.54" y2="470.92"/>
    <line class="cls-2" x1="1266.54" y1="476.4" x2="1266.54" y2="476.4"/>
  </g>
  <g>
    <line class="cls-2" x1="1510.77" y1="296.42" x2="1510.77" y2="296.42"/>
    <line class="cls-1" x1="1510.77" y1="307.38" x2="1510.77" y2="345.71"/>
    <line class="cls-2" x1="1510.77" y1="351.19" x2="1510.77" y2="351.19"/>
  </g>
  <g>
    <path class="cls-4" d="m1740.66,581.28h-11.18v-1.56l5.91-6.56c.88-.99,1.48-1.8,1.81-2.42s.5-1.26.5-1.93c0-.89-.27-1.62-.81-2.19s-1.26-.86-2.16-.86c-1.08,0-1.92.31-2.51.92s-.9,1.47-.9,2.56h-2.17c0-1.57.51-2.84,1.52-3.81s2.37-1.45,4.06-1.45c1.59,0,2.84.42,3.76,1.25s1.38,1.94,1.38,3.32c0,1.68-1.07,3.68-3.21,6l-4.57,4.96h8.57v1.77Z"/>
    <path class="cls-4" d="m1753.65,574c0,2.54-.43,4.43-1.3,5.66s-2.22,1.85-4.07,1.85-3.17-.6-4.04-1.81-1.33-3.01-1.36-5.41v-2.89c0-2.51.43-4.37,1.3-5.59s2.23-1.83,4.08-1.83,3.19.59,4.05,1.76,1.31,2.99,1.34,5.44v2.81Zm-2.17-2.96c0-1.84-.26-3.17-.77-4.01s-1.33-1.26-2.45-1.26-1.92.42-2.43,1.25-.77,2.12-.79,3.86v3.47c0,1.84.27,3.21.8,4.08s1.35,1.32,2.43,1.32,1.87-.41,2.38-1.24.79-2.13.81-3.91v-3.55Z"/>
    <path class="cls-4" d="m1767.61,581.28h-11.18v-1.56l5.91-6.56c.88-.99,1.48-1.8,1.81-2.42s.5-1.26.5-1.93c0-.89-.27-1.62-.81-2.19s-1.26-.86-2.16-.86c-1.08,0-1.92.31-2.51.92s-.9,1.47-.9,2.56h-2.17c0-1.57.51-2.84,1.52-3.81s2.37-1.45,4.06-1.45c1.59,0,2.84.42,3.76,1.25s1.38,1.94,1.38,3.32c0,1.68-1.07,3.68-3.21,6l-4.57,4.96h8.57v1.77Z"/>
    <path class="cls-4" d="m1781.09,581.28h-11.18v-1.56l5.91-6.56c.88-.99,1.48-1.8,1.81-2.42s.5-1.26.5-1.93c0-.89-.27-1.62-.81-2.19s-1.26-.86-2.16-.86c-1.08,0-1.92.31-2.51.92s-.9,1.47-.9,2.56h-2.17c0-1.57.51-2.84,1.52-3.81s2.37-1.45,4.06-1.45c1.59,0,2.84.42,3.76,1.25s1.38,1.94,1.38,3.32c0,1.68-1.07,3.68-3.21,6l-4.57,4.96h8.57v1.77Z"/>
  </g>
  <circle class="cls-3" cx="1755.01" cy="90.95" r="7.5"/>
  <g>
    <path class="cls-4" d="m1708.98,13.36l1.27-13.01h12.39v4.25h-8.31l-.46,5.48c.96-.64,1.95-.97,2.97-.97,2.11,0,3.74.75,4.88,2.25s1.71,3.62,1.71,6.36c0,2.57-.68,4.63-2.04,6.21s-3.18,2.36-5.45,2.36c-1.35,0-2.6-.32-3.74-.96s-2.05-1.53-2.71-2.66-1-2.43-1.01-3.87h4.92c.08,1.07.35,1.89.79,2.48s1.02.88,1.72.88c.82,0,1.45-.4,1.9-1.19s.67-1.97.67-3.54c0-1.48-.27-2.59-.8-3.34s-1.28-1.12-2.24-1.12-1.66.32-2.18.97l-.32.44-3.96-1.02Z"/>
    <path class="cls-4" d="m1741.77,25.95h-15.08v-3.52l6.93-8.81c.88-1.22,1.53-2.29,1.94-3.21s.62-1.8.62-2.65c0-1.14-.2-2.03-.59-2.67s-.96-.97-1.7-.97c-.81,0-1.45.38-1.92,1.12s-.71,1.8-.71,3.16h-4.99c0-1.57.33-3.01.98-4.31s1.56-2.31,2.74-3.03,2.51-1.08,4-1.08c2.29,0,4.06.63,5.32,1.89s1.89,3.05,1.89,5.37c0,1.44-.35,2.9-1.04,4.39s-1.96,3.31-3.79,5.48l-3.29,4.69h8.7v4.13Z"/>
    <path class="cls-4" d="m1745.44,23.41c0-.8.27-1.45.8-1.97s1.23-.77,2.08-.77,1.52.25,2.07.76.83,1.17.83,1.98-.28,1.48-.83,1.98-1.25.75-2.07.75-1.52-.25-2.06-.76-.82-1.16-.82-1.97Z"/>
    <path class="cls-4" d="m1770.38,3.22l-8.09,22.73h-5.26l8.12-21.46h-10.27V.35h15.49v2.87Z"/>
    <path class="cls-4" d="m1780.72.35l4.83,18.51,4.82-18.51h6.75v25.59h-5.19v-6.93l.47-10.67-5.12,17.6h-3.52l-5.12-17.6.47,10.67v6.93h-5.17V.35h6.75Z"/>
  </g>
  <g>
    <line class="cls-2" x1="1755.01" y1="36.18" x2="1755.01" y2="36.18"/>
    <line class="cls-1" x1="1755.01" y1="47.13" x2="1755.01" y2="85.47"/>
    <line class="cls-2" x1="1755.01" y1="90.95" x2="1755.01" y2="90.95"/>
  </g>
</svg>